<?xml version="1.0" standalone="no"?>
<!DOCTYPE svg PUBLIC "-//W3C//DTD SVG 20010904//EN"
 "http://www.w3.org/TR/2001/REC-SVG-20010904/DTD/svg10.dtd">
<svg version="1.0" xmlns="http://www.w3.org/2000/svg"
 width="512.000000pt" height="512.000000pt" viewBox="0 0 512.000000 512.000000"
 preserveAspectRatio="xMidYMid meet">
<metadata>
Created by potrace 1.14, written by Peter Selinger 2001-2017
</metadata>
<g transform="translate(0.000000,512.000000) scale(0.100000,-0.100000)"
fill="#000000" stroke="none">
<path d="M1397 5104 c-1 -1 -39 -5 -84 -8 -45 -4 -126 -18 -180 -31 -291 -71
-512 -197 -720 -413 -229 -236 -369 -541 -401 -872 -9 -100 -8 -2386 2 -2475
9 -74 10 -80 27 -164 42 -205 168 -460 306 -620 237 -276 565 -458 913 -508
73 -11 2517 -10 2598 0 35 5 75 12 88 17 13 5 24 8 24 5 0 -2 18 2 40 10 22 8
41 14 43 13 5 -1 104 31 142 47 183 75 341 180 481 319 213 212 339 446 407
750 l22 101 0 1275 0 1275 -22 102 c-83 382 -282 689 -590 909 -191 137 -454
237 -683 260 -58 6 -2406 13 -2413 8z"/>
</g>
</svg>
