<?xml version="1.0" standalone="no"?>
<!DOCTYPE svg PUBLIC "-//W3C//DTD SVG 20010904//EN"
 "http://www.w3.org/TR/2001/REC-SVG-20010904/DTD/svg10.dtd">
<svg version="1.0" xmlns="http://www.w3.org/2000/svg"
 width="518.000000pt" height="518.000000pt" viewBox="0 0 518.000000 518.000000"
 preserveAspectRatio="xMidYMid meet">
<metadata>
Created by potrace 1.14, written by Peter Selinger 2001-2017
</metadata>
<g transform="translate(0.000000,518.000000) scale(0.100000,-0.100000)"
fill="#000000" stroke="none">
<path d="M1417 5163 c-1 0 -38 -4 -82 -7 -81 -6 -309 -57 -346 -77 -11 -6 -28
-12 -38 -14 -40 -7 -183 -83 -287 -151 -270 -177 -488 -462 -585 -767 -41
-127 -54 -195 -67 -337 -9 -98 -7 -2394 2 -2485 68 -674 605 -1227 1276 -1313
75 -10 2519 -9 2600 1 348 41 713 244 940 522 148 182 277 447 306 630 3 22 8
43 9 46 2 3 8 32 12 65 10 75 11 2539 0 2615 -21 158 -103 395 -185 536 -236
403 -656 678 -1112 729 -52 6 -2437 13 -2443 7z"/>
</g>
</svg>
